#!OML:ASF I:\Actors\actors\Patient Classification 2\Patient 1\Session 1\actor1.ASF
:FULLY-SPECIFIED
:DEGREES
501
root -0.964346 18.1342 4.2247 6.1671 5.90586 -2.84872
lowerback 32.4608 0.501676 2.73801
upperback 10.6806 1.58511 0.932876
thorax -5.49807 0.798544 -1.1037
lowerneck -1.2356 -10.2213 -9.85613
upperneck 31.4309 -12.8522 -0.0573341
head 11.0689 -6.81958 0.376137
rclavicle 2.5842e-014 -8.15017e-015
rhumerus -17.2758 23.8685 -88.4473
rradius 54.3246
rwrist 3.65259
rhand -11.4785 -32.1209
rfingers 7.12502
rthumb 14.5595 -61.5899
lclavicle 2.5842e-014 -8.15017e-015
lhumerus 9.61902 -64.18 80.9001
lradius 137.066
lwrist 89.8354
lhand -39.0976 -26.257
lfingers 7.12502
lthumb -12.0978 3.37326
rfemur -20.918 -7.29866 17.634
rtibia 35.8699
rfoot -21.543 -2.90223
rtoes -16.2069
lfemur -30.3771 -2.65472 -9.04676
ltibia 43.0528
lfoot -17.6728 0.847819
ltoes -58.4199
502
root -0.972264 18.1165 4.24553 6.24369 6.01587 -2.88159
lowerback 32.0528 0.483776 2.81583
upperback 10.5186 1.58466 1.02273
thorax -5.50154 0.796737 -1.04317
lowerneck -2.03246 -9.28451 -8.62701
upperneck 30.3408 -11.9246 0.913954
head 10.6945 -6.17823 0.625412
rclavicle 3.02153e-014 -8.54774e-015
rhumerus -17.9349 23.9101 -88.0168
rradius 54.9136
rwrist 2.53362
rhand -10.0819 -31.7103
rfingers 7.12502
rthumb 15.9047 -61.0772
lclavicle 3.02153e-014 -8.54774e-015
lhumerus 9.10962 -63.1752 81.0827
lradius 137.358
lwrist 87.8344
lhand -39.1613 -26.2892
lfingers 7.12502
lthumb -12.1592 3.33743
rfemur -20.8439 -7.36144 17.7746
rtibia 35.7647
rfoot -22.1464 -2.96147
rtoes -16.9058
lfemur -30.5887 -2.61814 -8.99259
ltibia 43.3297
lfoot -17.7972 0.833589
ltoes -58.5673
503
root -0.980638 18.0855 4.26481 6.17457 6.09131 -2.90357
lowerback 31.8339 0.503189 2.88823
upperback 10.2988 1.6361 1.10907
thorax -5.65267 0.816572 -1.00577
lowerneck -2.55209 -8.36508 -7.34386
upperneck 29.0518 -10.9993 1.74218
head 10.1988 -5.5537 0.818908
rclavicle 3.97569e-015 1.05356e-014
rhumerus -18.7126 24.0013 -87.5413
rradius 55.5014
rwrist 1.65327
rhand -8.66296 -31.5957
rfingers 7.12502
rthumb 17.2709 -60.8483
lclavicle 3.97569e-015 1.05356e-014
lhumerus 8.59166 -62.128 81.4458
lradius 137.645
lwrist 85.7317
lhand -39.2952 -25.9251
lfingers 7.12502
lthumb -12.2883 3.69384
rfemur -20.768 -7.33099 17.8895
rtibia 36.001
rfoot -22.9698 -2.93774
rtoes -17.5459
lfemur -30.7127 -2.59526 -8.98902
ltibia 43.7684
lfoot -18.2448 0.983944
ltoes -58.7998
504
root -0.993761 18.0428 4.27826 6.21125 6.04309 -2.87936
lowerback 31.4429 0.696305 2.8806
upperback 10.0724 1.87292 1.18403
thorax -5.72891 0.925424 -0.996271
lowerneck -2.85973 -7.55314 -6.12599
upperneck 27.5021 -10.2451 2.72826
head 9.61424 -5.00875 1.0546
rclavicle 4.17448e-015 4.17448e-015
rhumerus -19.3149 23.8804 -86.97
rradius 55.9092
rwrist 0.853695
rhand -7.6576 -31.7591
rfingers 7.12502
rthumb 18.2383 -60.9241
lclavicle 4.17448e-015 4.17448e-015
lhumerus 8.59328 -61.2493 81.527
lradius 137.858
lwrist 83.8451
lhand -39.3744 -25.441
lfingers 7.12502
lthumb -12.3646 4.17337
rfemur -21.0472 -7.05286 17.9399
rtibia 36.6026
rfoot -23.6942 -2.96405
rtoes -17.8426
lfemur -31.001 -2.46707 -9.03143
ltibia 44.3358
lfoot -18.845 1.1312
ltoes -58.9693
505
root -1.00172 17.9906 4.28698 6.24414 6.15055 -2.82269
lowerback 31.0338 0.837019 2.99711
upperback 9.83596 2.08182 1.25376
thorax -5.80247 1.02286 -1.05301
lowerneck -2.93263 -6.8178 -5.2546
upperneck 25.6787 -9.58086 3.93594
head 8.94973 -4.53431 1.40554
rclavicle 2.04748e-014 1.27222e-014
rhumerus -19.5921 23.6801 -86.3392
rradius 55.9563
rwrist 0.0597028
rhand -7.08797 -32.219
rfingers 7.12502
rthumb 18.7862 -61.3319
lclavicle 2.04748e-014 1.27222e-014
lhumerus 8.74895 -60.5756 81.5853
lradius 137.984
lwrist 82.0534
lhand -39.1407 -24.9156
lfingers 7.12502
lthumb -12.1394 4.71224
rfemur -21.4844 -6.97669 17.9123
rtibia 37.4454
rfoot -24.1983 -3.01119
rtoes -18.1918
lfemur -31.3859 -2.54998 -9.09877
ltibia 44.9648
lfoot -19.397 1.25017
ltoes -59.0995
506
root -1.00307 17.939 4.29725 6.31884 6.29536 -2.75293
lowerback 30.57 0.905111 3.05187
upperback 9.52587 2.18485 1.35588
thorax -5.93981 1.06682 -1.00105
lowerneck -2.75908 -6.0482 -4.76233
upperneck 23.7547 -8.78548 5.11514
head 8.23651 -4.05357 1.80996
rclavicle 1.78906e-014 1.03368e-014
rhumerus -19.7169 23.6738 -85.779
rradius 55.6342
rwrist -0.601749
rhand -6.96805 -32.9156
rfingers 7.12502
rthumb 18.9015 -62.0173
lclavicle 1.78906e-014 1.03368e-014
lhumerus 8.41104 -59.8483 82.1041
lradius 138.021
lwrist 80.2408
lhand -38.3588 -24.332
lfingers 7.12502
lthumb -11.3853 5.33895
rfemur -22.0071 -7.17637 17.8489
rtibia 38.3729
rfoot -24.5346 -2.85548
rtoes -18.4923
lfemur -31.8349 -2.77233 -9.16768
ltibia 45.6035
lfoot -19.7976 1.41147
ltoes -59.1627
507
root -1.00166 17.8993 4.31373 6.31663 6.3609 -2.72083
lowerback 30.1297 0.985703 3.0237
upperback 9.20191 2.28049 1.45677
thorax -6.10513 1.10595 -0.900665
lowerneck -2.18593 -5.45797 -3.98241
upperneck 21.4195 -8.10805 5.79759
head 7.30713 -3.67286 1.98676
rclavicle 2.50469e-014 2.38542e-015
rhumerus -19.6654 23.6303 -85.3561
rradius 54.9474
rwrist -0.927594
rhand -7.13407 -33.8588
rfingers 7.12502
rthumb 18.7419 -62.9759
lclavicle 2.50469e-014 2.38542e-015
lhumerus 7.79345 -59.1362 82.8294
lradius 137.947
lwrist 78.4171
lhand -37.3522 -23.7606
lfingers 7.12502
lthumb -10.4145 5.96146
rfemur -22.3398 -7.37036 17.8055
rtibia 39.1751
rfoot -24.8211 -2.61565
rtoes -18.8134
lfemur -32.1068 -2.96641 -9.19193
ltibia 46.1597
lfoot -20.079 1.4771
ltoes -59.0768
508
root -0.999321 17.8739 4.33791 6.25174 6.32151 -2.79448
lowerback 29.6565 1.13503 3.12933
upperback 8.91134 2.49066 1.47808
thorax -6.20126 1.20246 -1.00173
lowerneck -1.6038 -5.04941 -3.22174
upperneck 19.129 -7.64206 6.5166
head 6.4341 -3.40538 2.1485
rclavicle 2.26615e-014 -1.03368e-014
rhumerus -19.421 23.139 -85.0875
rradius 53.9807
rwrist -0.912293
rhand -7.61481 -34.9606
rfingers 7.12502
rthumb 18.2794 -64.1217
lclavicle 2.26615e-014 -1.03368e-014
lhumerus 7.35067 -58.7036 83.4449
lradius 137.843
lwrist 76.7616
lhand -36.6065 -23.114
lfingers 7.12502
lthumb -9.69503 6.64285
rfemur -22.4459 -7.36817 17.8666
rtibia 39.6798
rfoot -25.0041 -2.51104
rtoes -18.9924
lfemur -32.1631 -2.95352 -9.12295
ltibia 46.5313
lfoot -20.262 1.46214
ltoes -59.1124
509
root -0.997221 17.8651 4.3719 6.09524 6.24227 -2.89833
lowerback 29.1291 1.25711 3.10228
upperback 8.5739 2.63441 1.56174
thorax -6.33355 1.26516 -0.933595
lowerneck -0.573642 -4.73032 -2.95605
upperneck 16.9253 -7.22382 7.21381
head 5.55243 -3.21752 2.38404
rclavicle 3.57812e-014 -1.15295e-014
rhumerus -19.3669 22.727 -84.9945
rradius 52.9945
rwrist -0.732759
rhand -8.55664 -36.2102
rfingers 7.12502
rthumb 17.3732 -65.4537
lclavicle 3.57812e-014 -1.15295e-014
lhumerus 6.30541 -58.1805 84.7083
lradius 137.812
lwrist 75.3581
lhand -36.1248 -22.3697
lfingers 7.12502
lthumb -9.23021 7.40827
rfemur -22.2512 -7.27201 17.9543
rtibia 39.8137
rfoot -25.0243 -2.55074
rtoes -18.89
lfemur -31.9318 -2.69106 -9.05399
ltibia 46.6347
lfoot -20.2979 1.32306
ltoes -59.2833
510
root -0.995725 17.8781 4.4115 5.64622 6.262 -2.96298
lowerback 28.8621 1.28756 3.01569
upperback 8.40689 2.65399 1.66134
thorax -6.40357 1.27177 -0.776221
lowerneck -0.015319 -4.55791 -3.00861
upperneck 15.2003 -6.96591 7.74874
head 4.92751 -3.12205 2.59205
rclavicle -3.18055e-014 -1.19271e-015
rhumerus -19.0902 22.1921 -84.9572
rradius 52.1643
rwrist -0.661478
rhand -9.69069 -37.5572
rfingers 7.12502
rthumb 16.2815 -66.8936
lclavicle -3.18055e-014 -1.19271e-015
lhumerus 5.62759 -57.576 85.6924
lradius 137.849
lwrist 74.1921
lhand -35.6846 -21.4008
lfingers 7.12502
lthumb -8.80546 8.39551
rfemur -21.4936 -7.24039 17.9597
rtibia 39.5775
rfoot -24.944 -2.61601
rtoes -18.5459
lfemur -31.192 -2.52308 -9.02793
ltibia 46.4281
lfoot -20.289 1.05908
ltoes -59.288
511
root -0.992576 17.9089 4.45178 4.98403 6.34557 -2.98612
lowerback 28.8223 1.24606 2.95821
upperback 8.35579 2.60168 1.81718
thorax -6.4545 1.24527 -0.553728
lowerneck 0.178791 -4.46102 -3.51646
upperneck 13.9275 -6.79007 8.13985
head 4.52277 -3.08001 2.81337
rclavicle 1.66979e-014 -1.63003e-014
rhumerus -18.8028 21.5655 -84.8501
rradius 51.7415
rwrist -0.960619
rhand -10.6672 -38.7286
rfingers 7.12502
rthumb 15.3411 -68.1396
lclavicle 1.66979e-014 -1.63003e-014
lhumerus 5.18137 -56.9221 86.6603
lradius 137.929
lwrist 73.2336
lhand -35.0207 -20.1467
lfingers 7.12502
lthumb -8.16477 9.67552
rfemur -20.2918 -7.2183 17.8683
rtibia 38.9993
rfoot -24.7305 -2.66946
rtoes -18.1326
lfemur -30.0493 -2.54551 -9.05146
ltibia 45.9235
lfoot -20.2551 0.87664
ltoes -59.1705
512
root -0.985259 17.9523 4.49369 4.34997 6.44102 -3.02486
lowerback 28.7025 1.21476 3.10329
upperback 8.3348 2.60939 1.92273
thorax -6.41911 1.24965 -0.519973
lowerneck 0.290679 -4.50061 -3.92352
upperneck 12.7039 -6.77875 8.34244
head 4.15088 -3.11672 2.94937
rclavicle -3.4191e-014 -4.37326e-015
rhumerus -18.625 20.4964 -84.836
rradius 51.6923
rwrist -1.59546
rhand -11.4935 -39.5002
rfingers 7.12502
rthumb 14.545 -68.9703
lclavicle -3.4191e-014 -4.37326e-015
lhumerus 4.86955 -56.4551 87.5887
lradius 137.971
lwrist 72.5799
lhand -33.8975 -18.5994
lfingers 7.12502
lthumb -7.08067 11.2622
rfemur -18.9764 -7.20192 17.7784
rtibia 38.1478
rfoot -24.3486 -2.80513
rtoes -17.919
lfemur -28.8096 -2.56365 -9.08077
ltibia 45.1876
lfoot -20.0645 0.753124
ltoes -59.127
513
root -0.97532 18.0069 4.53528 3.79559 6.55158 -3.11062
lowerback 28.5137 1.1562 3.37858
upperback 8.28872 2.60519 1.91264
thorax -6.36665 1.24918 -0.683313
lowerneck 0.313824 -4.59684 -3.99433
upperneck 11.4626 -6.83896 8.426
head 3.78137 -3.17581 2.98934
rclavicle 2.5842e-014 -9.14409e-015
rhumerus -18.4204 19.2486 -85.0969
rradius 51.8659
rwrist -2.75496
rhand -12.2685 -39.7119
rfingers 7.12502
rthumb 13.7982 -69.2343
lclavicle 2.5842e-014 -9.14409e-015
lhumerus 4.64433 -56.0073 88.2185
lradius 137.943
lwrist 71.9795
lhand -32.4024 -17.1558
lfingers 7.12502
lthumb -5.63721 12.7492
rfemur -17.6822 -7.23861 17.7534
rtibia 37.1373
rfoot -23.8414 -3.03326
rtoes -17.8001
lfemur -27.597 -2.52097 -9.06453
ltibia 44.319
lfoot -19.7386 0.542995
ltoes -59.1414
514
root -0.965486 18.0652 4.57303 3.35762 6.60833 -3.14775
lowerback 28.2344 1.06356 3.44873
upperback 8.19094 2.50343 1.96253
thorax -6.34465 1.20058 -0.630076
lowerneck 0.325151 -4.56217 -4.29423
upperneck 10.2313 -6.71111 8.43048
head 3.41134 -3.15333 3.05135
rclavicle 6.36111e-014 1.27222e-014
rhumerus -18.2793 18.8365 -85.3288
rradius 52.5064
rwrist -5.27413
rhand -13.1473 -39.5141
rfingers 7.12502
rthumb 12.9512 -69.0921
lclavicle 6.36111e-014 1.27222e-014
lhumerus 4.38225 -55.274 88.7835
lradius 137.883
lwrist 70.933
lhand -30.9362 -16.5413
lfingers 7.12502
lthumb -4.22149 13.3966
rfemur -16.5274 -7.2057 17.6921
rtibia 36.084
rfoot -23.3004 -3.33137
rtoes -17.7252
lfemur -26.4986 -2.4488 -9.09155
ltibia 43.4292
lfoot -19.3888 0.347428
ltoes -59.1192
515
root -0.954005 18.1182 4.60728 3.05257 6.61036 -3.09496
lowerback 27.8212 0.989743 3.36196
upperback 8.08722 2.38115 2.06784
thorax -6.27452 1.14278 -0.417084
lowerneck 0.272477 -4.4772 -4.5425
upperneck 8.54146 -6.44078 7.8401
head 3.19881 -3.09784 3.23201
rclavicle 8.74653e-015 -1.98785e-014
rhumerus -18.1136 19.0896 -85.3194
rradius 53.6857
rwrist -8.66975
rhand -13.5692 -39.3304
rfingers 7.12502
rthumb 12.5445 -68.9338
lclavicle 8.74653e-015 -1.98785e-014
lhumerus 4.35385 -54.4921 89.1654
lradius 137.787
lwrist 69.1105
lhand -29.7314 -16.6437
lfingers 7.12502
lthumb -3.05803 13.3141
rfemur -15.5481 -7.12562 17.5288
rtibia 35.0655
rfoot -22.8037 -3.56177
rtoes -17.5193
lfemur -25.5656 -2.47842 -9.21415
ltibia 42.6051
lfoot -19.0925 0.338008
ltoes -59.0505
